<?xml version="1.0" encoding="utf-8" standalone="no"?>
<!DOCTYPE svg PUBLIC "-//W3C//DTD SVG 1.1//EN"
  "http://www.w3.org/Graphics/SVG/1.1/DTD/svg11.dtd">
<svg xmlns:xlink="http://www.w3.org/1999/xlink" width="460.8pt" height="345.6pt" viewBox="0 0 460.8 345.6" xmlns="http://www.w3.org/2000/svg" version="1.1">
 <metadata>
  <rdf:RDF xmlns:dc="http://purl.org/dc/elements/1.1/" xmlns:cc="http://creativecommons.org/ns#" xmlns:rdf="http://www.w3.org/1999/02/22-rdf-syntax-ns#">
   <cc:Work>
    <dc:type rdf:resource="http://purl.org/dc/dcmitype/StillImage"/>
    <dc:date>2025-03-20T16:46:29.646416</dc:date>
    <dc:format>image/svg+xml</dc:format>
    <dc:creator>
     <cc:Agent>
      <dc:title>Matplotlib v3.9.2, https://matplotlib.org/</dc:title>
     </cc:Agent>
    </dc:creator>
   </cc:Work>
  </rdf:RDF>
 </metadata>
 <defs>
  <style type="text/css">*{stroke-linejoin: round; stroke-linecap: butt}</style>
 </defs>
 <g id="figure_1">
  <g id="patch_1">
   <path d="M 0 345.6 
L 460.8 345.6 
L 460.8 0 
L 0 0 
L 0 345.6 
z
" style="fill: none"/>
  </g>
  <g id="axes_1">
   <g id="patch_2">
    <path d="M 43.68 149.01 
L 241.44 149.01 
L 241.44 32.16 
L 43.68 32.16 
L 43.68 149.01 
z
" style="fill: none"/>
   </g>
   <g id="matplotlib.axis_1">
    <g id="xtick_1">
     <g id="line2d_1">
      <defs>
       <path id="md0422d477b" d="M 0 0 
L 0 6 
" style="stroke: #000000; stroke-width: 0.5"/>
      </defs>
      <g>
       <use xlink:href="#md0422d477b" x="83.702857" y="149.01" style="stroke: #000000; stroke-width: 0.5"/>
      </g>
     </g>
    </g>
    <g id="xtick_2">
     <g id="line2d_2">
      <g>
       <use xlink:href="#md0422d477b" x="130.788571" y="149.01" style="stroke: #000000; stroke-width: 0.5"/>
      </g>
     </g>
    </g>
    <g id="xtick_3">
     <g id="line2d_3">
      <g>
       <use xlink:href="#md0422d477b" x="177.874286" y="149.01" style="stroke: #000000; stroke-width: 0.5"/>
      </g>
     </g>
    </g>
    <g id="xtick_4">
     <g id="line2d_4">
      <g>
       <use xlink:href="#md0422d477b" x="224.96" y="149.01" style="stroke: #000000; stroke-width: 0.5"/>
      </g>
     </g>
    </g>
    <g id="xtick_5">
     <g id="line2d_5">
      <defs>
       <path id="m372eee9710" d="M 0 0 
L 0 3 
" style="stroke: #000000; stroke-width: 0.5"/>
      </defs>
      <g>
       <use xlink:href="#m372eee9710" x="48.388571" y="149.01" style="stroke: #000000; stroke-width: 0.5"/>
      </g>
     </g>
    </g>
    <g id="xtick_6">
     <g id="line2d_6">
      <g>
       <use xlink:href="#m372eee9710" x="60.16" y="149.01" style="stroke: #000000; stroke-width: 0.5"/>
      </g>
     </g>
    </g>
    <g id="xtick_7">
     <g id="line2d_7">
      <g>
       <use xlink:href="#m372eee9710" x="71.931429" y="149.01" style="stroke: #000000; stroke-width: 0.5"/>
      </g>
     </g>
    </g>
    <g id="xtick_8">
     <g id="line2d_8">
      <g>
       <use xlink:href="#m372eee9710" x="95.474286" y="149.01" style="stroke: #000000; stroke-width: 0.5"/>
      </g>
     </g>
    </g>
    <g id="xtick_9">
     <g id="line2d_9">
      <g>
       <use xlink:href="#m372eee9710" x="107.245714" y="149.01" style="stroke: #000000; stroke-width: 0.5"/>
      </g>
     </g>
    </g>
    <g id="xtick_10">
     <g id="line2d_10">
      <g>
       <use xlink:href="#m372eee9710" x="119.017143" y="149.01" style="stroke: #000000; stroke-width: 0.5"/>
      </g>
     </g>
    </g>
    <g id="xtick_11">
     <g id="line2d_11">
      <g>
       <use xlink:href="#m372eee9710" x="142.56" y="149.01" style="stroke: #000000; stroke-width: 0.5"/>
      </g>
     </g>
    </g>
    <g id="xtick_12">
     <g id="line2d_12">
      <g>
       <use xlink:href="#m372eee9710" x="154.331429" y="149.01" style="stroke: #000000; stroke-width: 0.5"/>
      </g>
     </g>
    </g>
    <g id="xtick_13">
     <g id="line2d_13">
      <g>
       <use xlink:href="#m372eee9710" x="166.102857" y="149.01" style="stroke: #000000; stroke-width: 0.5"/>
      </g>
     </g>
    </g>
    <g id="xtick_14">
     <g id="line2d_14">
      <g>
       <use xlink:href="#m372eee9710" x="189.645714" y="149.01" style="stroke: #000000; stroke-width: 0.5"/>
      </g>
     </g>
    </g>
    <g id="xtick_15">
     <g id="line2d_15">
      <g>
       <use xlink:href="#m372eee9710" x="201.417143" y="149.01" style="stroke: #000000; stroke-width: 0.5"/>
      </g>
     </g>
    </g>
    <g id="xtick_16">
     <g id="line2d_16">
      <g>
       <use xlink:href="#m372eee9710" x="213.188571" y="149.01" style="stroke: #000000; stroke-width: 0.5"/>
      </g>
     </g>
    </g>
    <g id="xtick_17">
     <g id="line2d_17">
      <g>
       <use xlink:href="#m372eee9710" x="236.731429" y="149.01" style="stroke: #000000; stroke-width: 0.5"/>
      </g>
     </g>
    </g>
   </g>
   <g id="matplotlib.axis_2">
    <g id="ytick_1">
     <g id="line2d_18">
      <path d="M 43.68 149.01 
L 241.44 149.01 
" clip-path="url(#p8e764e4a00)" style="fill: none; stroke: #cccccc; stroke-width: 0.5; stroke-linecap: square"/>
     </g>
     <g id="text_1">
      <!-- 0.0 -->
      <g transform="translate(26.220625 152.692812) scale(0.1 -0.1)">
       <defs>
        <path id="Lato-Regular-30" d="M 3520 2291 
Q 3520 1690 3390 1250 
Q 3261 810 3037 522 
Q 2813 234 2507 93 
Q 2202 -48 1853 -48 
Q 1501 -48 1198 93 
Q 896 234 672 522 
Q 448 810 320 1250 
Q 192 1690 192 2291 
Q 192 2893 320 3334 
Q 448 3776 672 4065 
Q 896 4355 1198 4496 
Q 1501 4637 1853 4637 
Q 2202 4637 2507 4496 
Q 2813 4355 3037 4065 
Q 3261 3776 3390 3334 
Q 3520 2893 3520 2291 
z
M 2928 2291 
Q 2928 2816 2840 3173 
Q 2752 3530 2603 3747 
Q 2454 3965 2259 4059 
Q 2064 4154 1853 4154 
Q 1642 4154 1446 4059 
Q 1251 3965 1104 3747 
Q 957 3530 869 3173 
Q 781 2816 781 2291 
Q 781 1766 869 1411 
Q 957 1056 1104 838 
Q 1251 621 1446 526 
Q 1642 432 1853 432 
Q 2064 432 2259 526 
Q 2454 621 2603 838 
Q 2752 1056 2840 1411 
Q 2928 1766 2928 2291 
z
" transform="scale(0.015625)"/>
        <path id="Lato-Regular-2e" d="M 355 352 
Q 355 435 385 508 
Q 416 582 469 636 
Q 522 691 595 723 
Q 669 755 752 755 
Q 835 755 908 723 
Q 982 691 1036 636 
Q 1091 582 1123 508 
Q 1155 435 1155 352 
Q 1155 266 1123 194 
Q 1091 122 1036 67 
Q 982 13 908 -17 
Q 835 -48 752 -48 
Q 669 -48 595 -17 
Q 522 13 469 67 
Q 416 122 385 194 
Q 355 266 355 352 
z
" transform="scale(0.015625)"/>
       </defs>
       <use xlink:href="#Lato-Regular-30"/>
       <use xlink:href="#Lato-Regular-2e" x="58"/>
       <use xlink:href="#Lato-Regular-30" x="81.600006"/>
      </g>
     </g>
    </g>
    <g id="ytick_2">
     <g id="line2d_19">
      <path d="M 43.68 122.453182 
L 241.44 122.453182 
" clip-path="url(#p8e764e4a00)" style="fill: none; stroke: #cccccc; stroke-width: 0.5; stroke-linecap: square"/>
     </g>
     <g id="text_2">
      <!-- 0.1 -->
      <g transform="translate(26.220625 126.135994) scale(0.1 -0.1)">
       <defs>
        <path id="Lato-Regular-31" d="M 800 435 
L 1782 435 
L 1782 3562 
Q 1782 3696 1792 3846 
L 976 3146 
Q 934 3110 892 3102 
Q 851 3094 816 3100 
Q 781 3107 750 3126 
Q 720 3146 704 3168 
L 525 3414 
L 1891 4595 
L 2355 4595 
L 2355 435 
L 3258 435 
L 3258 0 
L 800 0 
L 800 435 
z
" transform="scale(0.015625)"/>
       </defs>
       <use xlink:href="#Lato-Regular-30"/>
       <use xlink:href="#Lato-Regular-2e" x="58"/>
       <use xlink:href="#Lato-Regular-31" x="81.600006"/>
      </g>
     </g>
    </g>
    <g id="ytick_3">
     <g id="line2d_20">
      <path d="M 43.68 95.896364 
L 241.44 95.896364 
" clip-path="url(#p8e764e4a00)" style="fill: none; stroke: #cccccc; stroke-width: 0.5; stroke-linecap: square"/>
     </g>
     <g id="text_3">
      <!-- 0.2 -->
      <g transform="translate(26.220625 99.579176) scale(0.1 -0.1)">
       <defs>
        <path id="Lato-Regular-32" d="M 1891 4637 
Q 2182 4637 2435 4550 
Q 2688 4464 2873 4299 
Q 3059 4134 3164 3897 
Q 3270 3661 3270 3360 
Q 3270 3104 3193 2885 
Q 3117 2666 2985 2467 
Q 2854 2269 2683 2080 
Q 2512 1891 2320 1699 
L 1110 464 
Q 1238 499 1369 520 
Q 1501 541 1622 541 
L 3158 541 
Q 3251 541 3305 486 
Q 3360 432 3360 346 
L 3360 0 
L 301 0 
L 301 195 
Q 301 256 326 320 
Q 352 384 406 438 
L 1875 1914 
Q 2058 2099 2208 2270 
Q 2358 2442 2464 2614 
Q 2570 2787 2627 2964 
Q 2685 3142 2685 3344 
Q 2685 3546 2621 3698 
Q 2557 3850 2446 3949 
Q 2336 4048 2185 4097 
Q 2035 4147 1862 4147 
Q 1686 4147 1539 4096 
Q 1392 4045 1278 3953 
Q 1165 3862 1088 3737 
Q 1011 3613 979 3462 
Q 941 3350 875 3313 
Q 810 3277 691 3293 
L 394 3344 
Q 438 3658 568 3899 
Q 698 4141 894 4304 
Q 1091 4467 1344 4552 
Q 1597 4637 1891 4637 
z
" transform="scale(0.015625)"/>
       </defs>
       <use xlink:href="#Lato-Regular-30"/>
       <use xlink:href="#Lato-Regular-2e" x="58"/>
       <use xlink:href="#Lato-Regular-32" x="81.600006"/>
      </g>
     </g>
    </g>
    <g id="ytick_4">
     <g id="line2d_21">
      <path d="M 43.68 69.339545 
L 241.44 69.339545 
" clip-path="url(#p8e764e4a00)" style="fill: none; stroke: #cccccc; stroke-width: 0.5; stroke-linecap: square"/>
     </g>
     <g id="text_4">
      <!-- 0.3 -->
      <g transform="translate(26.220625 73.022358) scale(0.1 -0.1)">
       <defs>
        <path id="Lato-Regular-33" d="M 1914 4637 
Q 2205 4637 2451 4553 
Q 2698 4470 2875 4316 
Q 3053 4163 3152 3945 
Q 3251 3728 3251 3462 
Q 3251 3245 3195 3073 
Q 3139 2902 3035 2772 
Q 2931 2643 2784 2553 
Q 2637 2464 2454 2410 
Q 2902 2291 3128 2012 
Q 3354 1734 3354 1315 
Q 3354 998 3234 745 
Q 3114 493 2906 315 
Q 2698 138 2421 43 
Q 2144 -51 1827 -51 
Q 1462 -51 1203 40 
Q 944 131 765 291 
Q 586 451 470 670 
Q 355 890 275 1146 
L 522 1248 
Q 618 1290 709 1270 
Q 800 1251 842 1165 
Q 883 1075 945 950 
Q 1008 826 1117 710 
Q 1226 595 1394 515 
Q 1562 435 1821 435 
Q 2061 435 2241 513 
Q 2422 592 2542 717 
Q 2662 842 2723 995 
Q 2784 1149 2784 1299 
Q 2784 1485 2736 1638 
Q 2688 1792 2557 1904 
Q 2426 2016 2197 2080 
Q 1968 2144 1610 2144 
L 1610 2557 
Q 1904 2560 2110 2621 
Q 2317 2682 2446 2787 
Q 2576 2893 2635 3040 
Q 2694 3187 2694 3366 
Q 2694 3565 2632 3712 
Q 2570 3859 2461 3955 
Q 2352 4051 2203 4099 
Q 2054 4147 1882 4147 
Q 1709 4147 1560 4096 
Q 1411 4045 1297 3953 
Q 1184 3862 1107 3737 
Q 1030 3613 998 3462 
Q 957 3350 894 3313 
Q 832 3277 714 3293 
L 416 3344 
Q 461 3658 589 3899 
Q 717 4141 913 4304 
Q 1110 4467 1364 4552 
Q 1619 4637 1914 4637 
z
" transform="scale(0.015625)"/>
       </defs>
       <use xlink:href="#Lato-Regular-30"/>
       <use xlink:href="#Lato-Regular-2e" x="58"/>
       <use xlink:href="#Lato-Regular-33" x="81.600006"/>
      </g>
     </g>
    </g>
    <g id="ytick_5">
     <g id="line2d_22">
      <path d="M 43.68 42.782727 
L 241.44 42.782727 
" clip-path="url(#p8e764e4a00)" style="fill: none; stroke: #cccccc; stroke-width: 0.5; stroke-linecap: square"/>
     </g>
     <g id="text_5">
      <!-- 0.4 -->
      <g transform="translate(26.220625 46.46554) scale(0.1 -0.1)">
       <defs>
        <path id="Lato-Regular-34" d="M 2835 1654 
L 3530 1654 
L 3530 1328 
Q 3530 1277 3499 1241 
Q 3469 1206 3405 1206 
L 2835 1206 
L 2835 0 
L 2336 0 
L 2336 1206 
L 301 1206 
Q 237 1206 190 1243 
Q 144 1280 131 1334 
L 74 1626 
L 2304 4586 
L 2835 4586 
L 2835 1654 
z
M 2336 3546 
Q 2336 3629 2341 3726 
Q 2346 3824 2362 3926 
L 691 1654 
L 2336 1654 
L 2336 3546 
z
" transform="scale(0.015625)"/>
       </defs>
       <use xlink:href="#Lato-Regular-30"/>
       <use xlink:href="#Lato-Regular-2e" x="58"/>
       <use xlink:href="#Lato-Regular-34" x="81.600006"/>
      </g>
     </g>
    </g>
   </g>
   <g id="LineCollection_1">
    <path d="M 142.56 149.01 
L 142.56 42.782727 
" clip-path="url(#p8e764e4a00)" style="fill: none; stroke: #1f77b4"/>
   </g>
   <g id="LineCollection_2">
    <path d="M 119.017143 93.240682 
L 166.102857 93.240682 
" clip-path="url(#p8e764e4a00)" style="fill: none; stroke: #1f77b4"/>
   </g>
   <g id="line2d_23">
    <defs>
     <path id="m1561ac5a71" d="M 0 5 
L 0 -5 
" style="stroke: #1f77b4"/>
    </defs>
    <g clip-path="url(#p8e764e4a00)">
     <use xlink:href="#m1561ac5a71" x="119.017143" y="93.240682" style="fill: #1f77b4; stroke: #1f77b4"/>
    </g>
   </g>
   <g id="line2d_24">
    <g clip-path="url(#p8e764e4a00)">
     <use xlink:href="#m1561ac5a71" x="166.102857" y="93.240682" style="fill: #1f77b4; stroke: #1f77b4"/>
    </g>
   </g>
   <g id="line2d_25">
    <path d="M 60.16 148.778243 
L 61.824646 148.71391 
L 63.489293 148.633605 
L 65.153939 148.533906 
L 66.818586 148.410802 
L 68.483232 148.259628 
L 70.147879 148.075 
L 71.812525 147.850755 
L 73.477172 147.579896 
L 75.141818 147.254548 
L 76.806465 146.86593 
L 78.471111 146.40434 
L 80.135758 145.859167 
L 81.800404 145.218932 
L 83.465051 144.47135 
L 85.129697 143.603447 
L 86.794343 142.601698 
L 88.45899 141.45222 
L 90.123636 140.141008 
L 91.788283 138.654214 
L 93.452929 136.978478 
L 95.117576 135.10129 
L 96.782222 133.011404 
L 98.446869 130.69927 
L 100.111515 128.157498 
L 101.776162 125.381321 
L 103.440808 122.369065 
L 105.105455 119.122593 
L 106.770101 115.647718 
L 108.434747 111.954556 
L 110.099394 108.057819 
L 111.76404 103.977008 
L 113.428687 99.736511 
L 115.093333 95.365576 
L 116.75798 90.898164 
L 118.422626 86.372652 
L 120.087273 81.831412 
L 121.751919 77.320239 
L 123.416566 72.887658 
L 125.081212 68.584105 
L 126.745859 64.461012 
L 128.410505 60.56981 
L 130.075152 56.960873 
L 131.739798 53.68245 
L 133.404444 50.779594 
L 135.069091 48.293137 
L 136.733737 46.258731 
L 138.398384 44.706004 
L 140.06303 43.657839 
L 141.727677 43.129813 
L 143.392323 43.129813 
L 145.05697 43.657839 
L 146.721616 44.706004 
L 148.386263 46.258731 
L 150.050909 48.293137 
L 151.715556 50.779594 
L 153.380202 53.68245 
L 155.044848 56.960873 
L 156.709495 60.56981 
L 158.374141 64.461012 
L 160.038788 68.584105 
L 161.703434 72.887658 
L 163.368081 77.320239 
L 165.032727 81.831412 
L 166.697374 86.372652 
L 168.36202 90.898164 
L 170.026667 95.365576 
L 171.691313 99.736511 
L 173.35596 103.977008 
L 175.020606 108.057819 
L 176.685253 111.954556 
L 178.349899 115.647718 
L 180.014545 119.122593 
L 181.679192 122.369065 
L 183.343838 125.381321 
L 185.008485 128.157498 
L 186.673131 130.69927 
L 188.337778 133.011404 
L 190.002424 135.10129 
L 191.667071 136.978478 
L 193.331717 138.654214 
L 194.996364 140.141008 
L 196.66101 141.45222 
L 198.325657 142.601698 
L 199.990303 143.603447 
L 201.654949 144.47135 
L 203.319596 145.218932 
L 204.984242 145.859167 
L 206.648889 146.40434 
L 208.313535 146.86593 
L 209.978182 147.254548 
L 211.642828 147.579896 
L 213.307475 147.850755 
L 214.972121 148.075 
L 216.636768 148.259628 
L 218.301414 148.410802 
L 219.966061 148.533906 
L 221.630707 148.633605 
L 223.295354 148.71391 
L 224.96 148.778243 
" clip-path="url(#p8e764e4a00)" style="fill: none; stroke: #ff7f0e; stroke-linecap: square"/>
   </g>
   <g id="line2d_26">
    <path d="M 142.56 93.240682 
" clip-path="url(#p8e764e4a00)" style="fill: none; stroke: #1f77b4; stroke-linecap: square"/>
   </g>
   <g id="patch_3">
    <path d="M 43.68 149.01 
L 241.44 149.01 
" style="fill: none; stroke: #000000; stroke-width: 0.5; stroke-linejoin: miter; stroke-linecap: square"/>
   </g>
   <g id="text_6">
    <!-- Gaussian -->
    <g transform="translate(43.68 20.16) scale(0.12 -0.12)">
     <defs>
      <path id="Lato-Bold-47" d="M 4330 448 
Q 3978 189 3579 69 
Q 3181 -51 2726 -51 
Q 2160 -51 1701 125 
Q 1242 301 917 614 
Q 592 928 416 1363 
Q 240 1798 240 2314 
Q 240 2835 409 3270 
Q 579 3706 891 4019 
Q 1203 4333 1648 4505 
Q 2093 4678 2646 4678 
Q 2928 4678 3173 4633 
Q 3418 4589 3627 4510 
Q 3837 4432 4009 4320 
Q 4182 4208 4326 4074 
L 4080 3683 
Q 4022 3590 3929 3569 
Q 3837 3549 3728 3616 
Q 3622 3677 3516 3737 
Q 3411 3798 3281 3843 
Q 3152 3888 2990 3917 
Q 2829 3946 2618 3946 
Q 2275 3946 1998 3830 
Q 1722 3715 1526 3500 
Q 1331 3286 1225 2985 
Q 1120 2685 1120 2314 
Q 1120 1917 1233 1605 
Q 1347 1293 1553 1077 
Q 1760 861 2051 747 
Q 2342 634 2701 634 
Q 2957 634 3158 686 
Q 3360 739 3552 832 
L 3552 1674 
L 2970 1674 
Q 2886 1674 2840 1720 
Q 2794 1766 2794 1834 
L 2794 2320 
L 4330 2320 
L 4330 448 
L 4330 448 
z
" transform="scale(0.015625)"/>
      <path id="Lato-Bold-61" d="M 2538 0 
Q 2426 0 2365 33 
Q 2304 67 2269 170 
L 2198 403 
Q 2074 291 1955 206 
Q 1837 122 1709 64 
Q 1581 6 1435 -22 
Q 1290 -51 1114 -51 
Q 906 -51 730 5 
Q 554 61 426 173 
Q 298 285 227 451 
Q 157 618 157 838 
Q 157 1024 254 1205 
Q 352 1386 579 1531 
Q 806 1677 1184 1773 
Q 1562 1869 2125 1882 
L 2125 2074 
Q 2125 2403 1984 2561 
Q 1843 2720 1578 2720 
Q 1386 2720 1259 2675 
Q 1133 2630 1037 2574 
Q 941 2518 862 2473 
Q 784 2429 688 2429 
Q 605 2429 547 2472 
Q 490 2515 454 2573 
L 314 2826 
Q 880 3344 1677 3344 
Q 1965 3344 2192 3249 
Q 2419 3155 2576 2987 
Q 2733 2819 2814 2585 
Q 2896 2352 2896 2074 
L 2896 0 
L 2538 0 
z
M 1357 493 
Q 1600 493 1777 581 
Q 1955 669 2125 848 
L 2125 1402 
Q 1779 1386 1547 1342 
Q 1315 1299 1174 1232 
Q 1034 1165 973 1075 
Q 912 986 912 880 
Q 912 672 1035 582 
Q 1158 493 1357 493 
z
" transform="scale(0.015625)"/>
      <path id="Lato-Bold-75" d="M 1149 3283 
L 1149 1197 
Q 1149 896 1288 731 
Q 1427 566 1706 566 
Q 1910 566 2089 657 
Q 2269 749 2429 909 
L 2429 3283 
L 3219 3283 
L 3219 0 
L 2736 0 
Q 2579 0 2538 144 
L 2483 406 
Q 2381 304 2272 219 
Q 2163 134 2038 73 
Q 1914 13 1773 -19 
Q 1632 -51 1466 -51 
Q 1197 -51 990 40 
Q 784 131 643 297 
Q 502 464 430 693 
Q 358 922 358 1197 
L 358 3283 
L 1149 3283 
z
" transform="scale(0.015625)"/>
      <path id="Lato-Bold-73" d="M 2394 2643 
Q 2362 2592 2326 2571 
Q 2291 2550 2237 2550 
Q 2179 2550 2113 2582 
Q 2048 2614 1961 2654 
Q 1875 2694 1764 2726 
Q 1654 2758 1504 2758 
Q 1270 2758 1137 2659 
Q 1005 2560 1005 2400 
Q 1005 2294 1073 2222 
Q 1142 2150 1256 2096 
Q 1370 2042 1514 1998 
Q 1658 1955 1806 1904 
Q 1955 1853 2099 1787 
Q 2243 1722 2356 1621 
Q 2470 1520 2539 1379 
Q 2608 1238 2608 1040 
Q 2608 803 2523 603 
Q 2438 403 2272 257 
Q 2106 112 1861 30 
Q 1616 -51 1296 -51 
Q 1126 -51 964 -20 
Q 803 10 654 64 
Q 506 118 379 192 
Q 253 266 157 352 
L 339 653 
Q 374 707 422 736 
Q 470 765 544 765 
Q 618 765 683 723 
Q 749 682 835 634 
Q 922 586 1038 544 
Q 1155 502 1334 502 
Q 1475 502 1576 536 
Q 1677 570 1742 624 
Q 1808 678 1838 750 
Q 1869 822 1869 899 
Q 1869 1014 1800 1088 
Q 1731 1162 1617 1216 
Q 1504 1270 1358 1313 
Q 1213 1357 1061 1408 
Q 909 1459 763 1528 
Q 618 1597 504 1702 
Q 390 1808 321 1961 
Q 253 2115 253 2333 
Q 253 2534 333 2716 
Q 413 2899 568 3035 
Q 723 3171 955 3252 
Q 1187 3334 1491 3334 
Q 1830 3334 2108 3222 
Q 2387 3110 2573 2928 
L 2394 2643 
z
" transform="scale(0.015625)"/>
      <path id="Lato-Bold-69" d="M 1210 3283 
L 1210 0 
L 416 0 
L 416 3283 
L 1210 3283 
z
M 1318 4240 
Q 1318 4138 1276 4048 
Q 1235 3958 1166 3891 
Q 1098 3824 1005 3784 
Q 912 3744 806 3744 
Q 704 3744 613 3784 
Q 522 3824 454 3891 
Q 387 3958 347 4048 
Q 307 4138 307 4240 
Q 307 4346 347 4438 
Q 387 4531 454 4598 
Q 522 4666 613 4706 
Q 704 4746 806 4746 
Q 912 4746 1005 4706 
Q 1098 4666 1166 4598 
Q 1235 4531 1276 4438 
Q 1318 4346 1318 4240 
z
" transform="scale(0.015625)"/>
      <path id="Lato-Bold-6e" d="M 390 0 
L 390 3283 
L 874 3283 
Q 1027 3283 1075 3139 
L 1130 2880 
Q 1229 2982 1339 3065 
Q 1450 3149 1573 3209 
Q 1696 3270 1837 3302 
Q 1978 3334 2144 3334 
Q 2413 3334 2621 3243 
Q 2829 3152 2968 2987 
Q 3107 2822 3179 2593 
Q 3251 2365 3251 2090 
L 3251 0 
L 2461 0 
L 2461 2090 
Q 2461 2390 2323 2555 
Q 2186 2720 1904 2720 
Q 1699 2720 1520 2627 
Q 1341 2534 1181 2374 
L 1181 0 
L 390 0 
z
" transform="scale(0.015625)"/>
     </defs>
     <use xlink:href="#Lato-Bold-47"/>
     <use xlink:href="#Lato-Bold-61" x="72.475006"/>
     <use xlink:href="#Lato-Bold-75" x="123.225006"/>
     <use xlink:href="#Lato-Bold-73" x="179.625015"/>
     <use xlink:href="#Lato-Bold-73" x="223.575012"/>
     <use xlink:href="#Lato-Bold-69" x="267.525009"/>
     <use xlink:href="#Lato-Bold-61" x="292.925003"/>
     <use xlink:href="#Lato-Bold-6e" x="343.675003"/>
    </g>
   </g>
  </g>
  <g id="axes_2">
   <g id="patch_4">
    <path d="M 252.24 149.01 
L 450 149.01 
L 450 32.16 
L 252.24 32.16 
L 252.24 149.01 
z
" style="fill: none"/>
   </g>
   <g id="matplotlib.axis_3">
    <g id="xtick_18">
     <g id="line2d_27">
      <g>
       <use xlink:href="#md0422d477b" x="292.262857" y="149.01" style="stroke: #000000; stroke-width: 0.5"/>
      </g>
     </g>
    </g>
    <g id="xtick_19">
     <g id="line2d_28">
      <g>
       <use xlink:href="#md0422d477b" x="339.348571" y="149.01" style="stroke: #000000; stroke-width: 0.5"/>
      </g>
     </g>
    </g>
    <g id="xtick_20">
     <g id="line2d_29">
      <g>
       <use xlink:href="#md0422d477b" x="386.434286" y="149.01" style="stroke: #000000; stroke-width: 0.5"/>
      </g>
     </g>
    </g>
    <g id="xtick_21">
     <g id="line2d_30">
      <g>
       <use xlink:href="#md0422d477b" x="433.52" y="149.01" style="stroke: #000000; stroke-width: 0.5"/>
      </g>
     </g>
    </g>
    <g id="xtick_22">
     <g id="line2d_31">
      <g>
       <use xlink:href="#m372eee9710" x="256.948571" y="149.01" style="stroke: #000000; stroke-width: 0.5"/>
      </g>
     </g>
    </g>
    <g id="xtick_23">
     <g id="line2d_32">
      <g>
       <use xlink:href="#m372eee9710" x="268.72" y="149.01" style="stroke: #000000; stroke-width: 0.5"/>
      </g>
     </g>
    </g>
    <g id="xtick_24">
     <g id="line2d_33">
      <g>
       <use xlink:href="#m372eee9710" x="280.491429" y="149.01" style="stroke: #000000; stroke-width: 0.5"/>
      </g>
     </g>
    </g>
    <g id="xtick_25">
     <g id="line2d_34">
      <g>
       <use xlink:href="#m372eee9710" x="304.034286" y="149.01" style="stroke: #000000; stroke-width: 0.5"/>
      </g>
     </g>
    </g>
    <g id="xtick_26">
     <g id="line2d_35">
      <g>
       <use xlink:href="#m372eee9710" x="315.805714" y="149.01" style="stroke: #000000; stroke-width: 0.5"/>
      </g>
     </g>
    </g>
    <g id="xtick_27">
     <g id="line2d_36">
      <g>
       <use xlink:href="#m372eee9710" x="327.577143" y="149.01" style="stroke: #000000; stroke-width: 0.5"/>
      </g>
     </g>
    </g>
    <g id="xtick_28">
     <g id="line2d_37">
      <g>
       <use xlink:href="#m372eee9710" x="351.12" y="149.01" style="stroke: #000000; stroke-width: 0.5"/>
      </g>
     </g>
    </g>
    <g id="xtick_29">
     <g id="line2d_38">
      <g>
       <use xlink:href="#m372eee9710" x="362.891429" y="149.01" style="stroke: #000000; stroke-width: 0.5"/>
      </g>
     </g>
    </g>
    <g id="xtick_30">
     <g id="line2d_39">
      <g>
       <use xlink:href="#m372eee9710" x="374.662857" y="149.01" style="stroke: #000000; stroke-width: 0.5"/>
      </g>
     </g>
    </g>
    <g id="xtick_31">
     <g id="line2d_40">
      <g>
       <use xlink:href="#m372eee9710" x="398.205714" y="149.01" style="stroke: #000000; stroke-width: 0.5"/>
      </g>
     </g>
    </g>
    <g id="xtick_32">
     <g id="line2d_41">
      <g>
       <use xlink:href="#m372eee9710" x="409.977143" y="149.01" style="stroke: #000000; stroke-width: 0.5"/>
      </g>
     </g>
    </g>
    <g id="xtick_33">
     <g id="line2d_42">
      <g>
       <use xlink:href="#m372eee9710" x="421.748571" y="149.01" style="stroke: #000000; stroke-width: 0.5"/>
      </g>
     </g>
    </g>
    <g id="xtick_34">
     <g id="line2d_43">
      <g>
       <use xlink:href="#m372eee9710" x="445.291429" y="149.01" style="stroke: #000000; stroke-width: 0.5"/>
      </g>
     </g>
    </g>
   </g>
   <g id="matplotlib.axis_4">
    <g id="ytick_6">
     <g id="line2d_44">
      <path d="M 252.24 149.01 
L 450 149.01 
" clip-path="url(#p6726e7fa0b)" style="fill: none; stroke: #cccccc; stroke-width: 0.5; stroke-linecap: square"/>
     </g>
    </g>
    <g id="ytick_7">
     <g id="line2d_45">
      <path d="M 252.24 122.453182 
L 450 122.453182 
" clip-path="url(#p6726e7fa0b)" style="fill: none; stroke: #cccccc; stroke-width: 0.5; stroke-linecap: square"/>
     </g>
    </g>
    <g id="ytick_8">
     <g id="line2d_46">
      <path d="M 252.24 95.896364 
L 450 95.896364 
" clip-path="url(#p6726e7fa0b)" style="fill: none; stroke: #cccccc; stroke-width: 0.5; stroke-linecap: square"/>
     </g>
    </g>
    <g id="ytick_9">
     <g id="line2d_47">
      <path d="M 252.24 69.339545 
L 450 69.339545 
" clip-path="url(#p6726e7fa0b)" style="fill: none; stroke: #cccccc; stroke-width: 0.5; stroke-linecap: square"/>
     </g>
    </g>
    <g id="ytick_10">
     <g id="line2d_48">
      <path d="M 252.24 42.782727 
L 450 42.782727 
" clip-path="url(#p6726e7fa0b)" style="fill: none; stroke: #cccccc; stroke-width: 0.5; stroke-linecap: square"/>
     </g>
    </g>
   </g>
   <g id="patch_5">
    <path d="M 268.72 149.01 
L 275.586667 149.01 
L 275.586667 148.613827 
L 268.72 148.613827 
z
" clip-path="url(#p6726e7fa0b)" style="fill: #1f77b4"/>
   </g>
   <g id="patch_6">
    <path d="M 275.586667 149.01 
L 282.453333 149.01 
L 282.453333 148.006655 
L 275.586667 148.006655 
z
" clip-path="url(#p6726e7fa0b)" style="fill: #1f77b4"/>
   </g>
   <g id="patch_7">
    <path d="M 282.453333 149.01 
L 289.32 149.01 
L 289.32 146.674815 
L 282.453333 146.674815 
z
" clip-path="url(#p6726e7fa0b)" style="fill: #1f77b4"/>
   </g>
   <g id="patch_8">
    <path d="M 289.32 149.01 
L 296.186667 149.01 
L 296.186667 144.015407 
L 289.32 144.015407 
z
" clip-path="url(#p6726e7fa0b)" style="fill: #1f77b4"/>
   </g>
   <g id="patch_9">
    <path d="M 296.186667 149.01 
L 303.053333 149.01 
L 303.053333 139.192787 
L 296.186667 139.192787 
z
" clip-path="url(#p6726e7fa0b)" style="fill: #1f77b4"/>
   </g>
   <g id="patch_10">
    <path d="M 303.053333 149.01 
L 309.92 149.01 
L 309.92 131.2768 
L 303.053333 131.2768 
z
" clip-path="url(#p6726e7fa0b)" style="fill: #1f77b4"/>
   </g>
   <g id="patch_11">
    <path d="M 309.92 149.01 
L 316.786667 149.01 
L 316.786667 119.572697 
L 309.92 119.572697 
z
" clip-path="url(#p6726e7fa0b)" style="fill: #1f77b4"/>
   </g>
   <g id="patch_12">
    <path d="M 316.786667 149.01 
L 323.653333 149.01 
L 323.653333 104.10217 
L 316.786667 104.10217 
z
" clip-path="url(#p6726e7fa0b)" style="fill: #1f77b4"/>
   </g>
   <g id="patch_13">
    <path d="M 323.653333 149.01 
L 330.52 149.01 
L 330.52 86.050656 
L 323.653333 86.050656 
z
" clip-path="url(#p6726e7fa0b)" style="fill: #1f77b4"/>
   </g>
   <g id="patch_14">
    <path d="M 330.52 149.01 
L 337.386667 149.01 
L 337.386667 67.892766 
L 330.52 67.892766 
z
" clip-path="url(#p6726e7fa0b)" style="fill: #1f77b4"/>
   </g>
   <g id="patch_15">
    <path d="M 337.386667 149.01 
L 344.253333 149.01 
L 344.253333 52.963522 
L 337.386667 52.963522 
z
" clip-path="url(#p6726e7fa0b)" style="fill: #1f77b4"/>
   </g>
   <g id="patch_16">
    <path d="M 344.253333 149.01 
L 351.12 149.01 
L 351.12 44.498157 
L 344.253333 44.498157 
z
" clip-path="url(#p6726e7fa0b)" style="fill: #1f77b4"/>
   </g>
   <g id="patch_17">
    <path d="M 351.12 149.01 
L 357.986667 149.01 
L 357.986667 44.498157 
L 351.12 44.498157 
z
" clip-path="url(#p6726e7fa0b)" style="fill: #1f77b4"/>
   </g>
   <g id="patch_18">
    <path d="M 357.986667 149.01 
L 364.853333 149.01 
L 364.853333 52.963522 
L 357.986667 52.963522 
z
" clip-path="url(#p6726e7fa0b)" style="fill: #1f77b4"/>
   </g>
   <g id="patch_19">
    <path d="M 364.853333 149.01 
L 371.72 149.01 
L 371.72 67.892766 
L 364.853333 67.892766 
z
" clip-path="url(#p6726e7fa0b)" style="fill: #1f77b4"/>
   </g>
   <g id="patch_20">
    <path d="M 371.72 149.01 
L 378.586667 149.01 
L 378.586667 86.050656 
L 371.72 86.050656 
z
" clip-path="url(#p6726e7fa0b)" style="fill: #1f77b4"/>
   </g>
   <g id="patch_21">
    <path d="M 378.586667 149.01 
L 385.453333 149.01 
L 385.453333 104.10217 
L 378.586667 104.10217 
z
" clip-path="url(#p6726e7fa0b)" style="fill: #1f77b4"/>
   </g>
   <g id="patch_22">
    <path d="M 385.453333 149.01 
L 392.32 149.01 
L 392.32 119.572697 
L 385.453333 119.572697 
z
" clip-path="url(#p6726e7fa0b)" style="fill: #1f77b4"/>
   </g>
   <g id="patch_23">
    <path d="M 392.32 149.01 
L 399.186667 149.01 
L 399.186667 131.2768 
L 392.32 131.2768 
z
" clip-path="url(#p6726e7fa0b)" style="fill: #1f77b4"/>
   </g>
   <g id="patch_24">
    <path d="M 399.186667 149.01 
L 406.053333 149.01 
L 406.053333 139.192787 
L 399.186667 139.192787 
z
" clip-path="url(#p6726e7fa0b)" style="fill: #1f77b4"/>
   </g>
   <g id="patch_25">
    <path d="M 406.053333 149.01 
L 412.92 149.01 
L 412.92 144.015407 
L 406.053333 144.015407 
z
" clip-path="url(#p6726e7fa0b)" style="fill: #1f77b4"/>
   </g>
   <g id="patch_26">
    <path d="M 412.92 149.01 
L 419.786667 149.01 
L 419.786667 146.674815 
L 412.92 146.674815 
z
" clip-path="url(#p6726e7fa0b)" style="fill: #1f77b4"/>
   </g>
   <g id="patch_27">
    <path d="M 419.786667 149.01 
L 426.653333 149.01 
L 426.653333 148.006655 
L 419.786667 148.006655 
z
" clip-path="url(#p6726e7fa0b)" style="fill: #1f77b4"/>
   </g>
   <g id="patch_28">
    <path d="M 426.653333 149.01 
L 433.52 149.01 
L 433.52 148.613827 
L 426.653333 148.613827 
z
" clip-path="url(#p6726e7fa0b)" style="fill: #1f77b4"/>
   </g>
   <g id="line2d_49">
    <path d="M 268.72 148.778243 
L 270.384646 148.71391 
L 272.049293 148.633605 
L 273.713939 148.533906 
L 275.378586 148.410802 
L 277.043232 148.259628 
L 278.707879 148.075 
L 280.372525 147.850755 
L 282.037172 147.579896 
L 283.701818 147.254548 
L 285.366465 146.86593 
L 287.031111 146.40434 
L 288.695758 145.859167 
L 290.360404 145.218932 
L 292.025051 144.47135 
L 293.689697 143.603447 
L 295.354343 142.601698 
L 297.01899 141.45222 
L 298.683636 140.141008 
L 300.348283 138.654214 
L 302.012929 136.978478 
L 303.677576 135.10129 
L 305.342222 133.011404 
L 307.006869 130.69927 
L 308.671515 128.157498 
L 310.336162 125.381321 
L 312.000808 122.369065 
L 313.665455 119.122593 
L 315.330101 115.647718 
L 316.994747 111.954556 
L 318.659394 108.057819 
L 320.32404 103.977008 
L 321.988687 99.736511 
L 323.653333 95.365576 
L 325.31798 90.898164 
L 326.982626 86.372652 
L 328.647273 81.831412 
L 330.311919 77.320239 
L 331.976566 72.887658 
L 333.641212 68.584105 
L 335.305859 64.461012 
L 336.970505 60.56981 
L 338.635152 56.960873 
L 340.299798 53.68245 
L 341.964444 50.779594 
L 343.629091 48.293137 
L 345.293737 46.258731 
L 346.958384 44.706004 
L 348.62303 43.657839 
L 350.287677 43.129813 
L 351.952323 43.129813 
L 353.61697 43.657839 
L 355.281616 44.706004 
L 356.946263 46.258731 
L 358.610909 48.293137 
L 360.275556 50.779594 
L 361.940202 53.68245 
L 363.604848 56.960873 
L 365.269495 60.56981 
L 366.934141 64.461012 
L 368.598788 68.584105 
L 370.263434 72.887658 
L 371.928081 77.320239 
L 373.592727 81.831412 
L 375.257374 86.372652 
L 376.92202 90.898164 
L 378.586667 95.365576 
L 380.251313 99.736511 
L 381.91596 103.977008 
L 383.580606 108.057819 
L 385.245253 111.954556 
L 386.909899 115.647718 
L 388.574545 119.122593 
L 390.239192 122.369065 
L 391.903838 125.381321 
L 393.568485 128.157498 
L 395.233131 130.69927 
L 396.897778 133.011404 
L 398.562424 135.10129 
L 400.227071 136.978478 
L 401.891717 138.654214 
L 403.556364 140.141008 
L 405.22101 141.45222 
L 406.885657 142.601698 
L 408.550303 143.603447 
L 410.214949 144.47135 
L 411.879596 145.218932 
L 413.544242 145.859167 
L 415.208889 146.40434 
L 416.873535 146.86593 
L 418.538182 147.254548 
L 420.202828 147.579896 
L 421.867475 147.850755 
L 423.532121 148.075 
L 425.196768 148.259628 
L 426.861414 148.410802 
L 428.526061 148.533906 
L 430.190707 148.633605 
L 431.855354 148.71391 
L 433.52 148.778243 
" clip-path="url(#p6726e7fa0b)" style="fill: none; stroke: #ff7f0e; stroke-linecap: square"/>
   </g>
   <g id="patch_29">
    <path d="M 252.24 149.01 
L 450 149.01 
" style="fill: none; stroke: #000000; stroke-width: 0.5; stroke-linejoin: miter; stroke-linecap: square"/>
   </g>
   <g id="text_7">
    <!-- Histogram -->
    <g transform="translate(252.24 20.16) scale(0.12 -0.12)">
     <defs>
      <path id="Lato-Bold-48" d="M 4416 0 
L 3552 0 
L 3552 2022 
L 1379 2022 
L 1379 0 
L 515 0 
L 515 4627 
L 1379 4627 
L 1379 2637 
L 3552 2637 
L 3552 4627 
L 4416 4627 
L 4416 0 
z
" transform="scale(0.015625)"/>
      <path id="Lato-Bold-74" d="M 1485 -51 
Q 1056 -51 827 190 
Q 598 432 598 858 
L 598 2691 
L 262 2691 
Q 198 2691 153 2732 
Q 109 2774 109 2858 
L 109 3171 
L 637 3258 
L 803 4154 
Q 819 4218 864 4253 
Q 909 4288 979 4288 
L 1389 4288 
L 1389 3254 
L 2266 3254 
L 2266 2691 
L 1389 2691 
L 1389 912 
Q 1389 758 1464 672 
Q 1539 586 1670 586 
Q 1744 586 1793 603 
Q 1843 621 1880 640 
Q 1917 659 1945 676 
Q 1974 694 2003 694 
Q 2038 694 2060 676 
Q 2083 659 2109 624 
L 2346 240 
Q 2173 96 1949 22 
Q 1725 -51 1485 -51 
z
" transform="scale(0.015625)"/>
      <path id="Lato-Bold-6f" d="M 1843 3334 
Q 2208 3334 2507 3216 
Q 2806 3098 3019 2880 
Q 3232 2662 3347 2348 
Q 3462 2035 3462 1648 
Q 3462 1258 3347 944 
Q 3232 630 3019 409 
Q 2806 189 2507 70 
Q 2208 -48 1843 -48 
Q 1475 -48 1174 70 
Q 874 189 661 409 
Q 448 630 331 944 
Q 214 1258 214 1648 
Q 214 2035 331 2348 
Q 448 2662 661 2880 
Q 874 3098 1174 3216 
Q 1475 3334 1843 3334 
z
M 1843 560 
Q 2253 560 2449 835 
Q 2646 1110 2646 1642 
Q 2646 2173 2449 2451 
Q 2253 2730 1843 2730 
Q 1427 2730 1227 2450 
Q 1027 2170 1027 1642 
Q 1027 1114 1227 837 
Q 1427 560 1843 560 
z
" transform="scale(0.015625)"/>
      <path id="Lato-Bold-67" d="M 1590 3341 
Q 1802 3341 1986 3297 
Q 2170 3254 2326 3171 
L 3270 3171 
L 3270 2877 
Q 3270 2736 3101 2704 
L 2806 2650 
Q 2838 2566 2856 2473 
Q 2874 2381 2874 2278 
Q 2874 2035 2776 1838 
Q 2678 1642 2505 1504 
Q 2333 1366 2097 1291 
Q 1862 1216 1590 1216 
Q 1405 1216 1229 1251 
Q 1075 1158 1075 1043 
Q 1075 944 1166 897 
Q 1258 851 1408 832 
Q 1558 813 1750 808 
Q 1942 803 2144 787 
Q 2346 771 2538 731 
Q 2730 691 2880 604 
Q 3030 518 3121 369 
Q 3213 221 3213 -13 
Q 3213 -230 3105 -435 
Q 2998 -640 2795 -800 
Q 2592 -960 2296 -1057 
Q 2000 -1155 1622 -1155 
Q 1251 -1155 976 -1083 
Q 701 -1011 518 -891 
Q 336 -771 246 -614 
Q 157 -458 157 -288 
Q 157 -61 296 96 
Q 435 253 675 346 
Q 547 413 470 525 
Q 394 637 394 819 
Q 394 893 419 971 
Q 445 1050 497 1126 
Q 550 1203 632 1272 
Q 714 1341 822 1395 
Q 573 1530 430 1754 
Q 288 1978 288 2278 
Q 288 2522 385 2718 
Q 483 2915 657 3054 
Q 832 3194 1070 3267 
Q 1309 3341 1590 3341 
z
M 2483 -147 
Q 2483 -51 2425 8 
Q 2368 67 2269 102 
Q 2170 138 2037 154 
Q 1904 170 1755 178 
Q 1606 186 1448 192 
Q 1290 198 1139 218 
Q 1008 144 926 45 
Q 845 -54 845 -186 
Q 845 -272 888 -347 
Q 931 -422 1025 -476 
Q 1120 -531 1270 -561 
Q 1421 -592 1638 -592 
Q 1859 -592 2019 -558 
Q 2179 -525 2283 -465 
Q 2387 -406 2435 -324 
Q 2483 -243 2483 -147 
z
M 1590 1722 
Q 1738 1722 1846 1762 
Q 1955 1802 2027 1872 
Q 2099 1942 2136 2041 
Q 2173 2141 2173 2259 
Q 2173 2502 2027 2644 
Q 1882 2787 1590 2787 
Q 1299 2787 1153 2644 
Q 1008 2502 1008 2259 
Q 1008 2144 1045 2045 
Q 1082 1946 1154 1874 
Q 1226 1802 1336 1762 
Q 1446 1722 1590 1722 
z
" transform="scale(0.015625)"/>
      <path id="Lato-Bold-72" d="M 390 0 
L 390 3283 
L 854 3283 
Q 976 3283 1024 3240 
Q 1072 3197 1088 3085 
L 1133 2714 
Q 1290 3008 1501 3176 
Q 1712 3344 2000 3344 
Q 2227 3344 2365 3245 
L 2314 2653 
Q 2298 2595 2267 2571 
Q 2237 2547 2186 2547 
Q 2138 2547 2043 2563 
Q 1949 2579 1859 2579 
Q 1728 2579 1625 2540 
Q 1523 2502 1441 2430 
Q 1360 2358 1297 2256 
Q 1235 2154 1181 2022 
L 1181 0 
L 390 0 
z
" transform="scale(0.015625)"/>
      <path id="Lato-Bold-6d" d="M 390 0 
L 390 3283 
L 874 3283 
Q 1027 3283 1075 3139 
L 1126 2896 
Q 1213 2992 1307 3072 
Q 1402 3152 1509 3209 
Q 1616 3267 1739 3300 
Q 1862 3334 2010 3334 
Q 2320 3334 2520 3166 
Q 2720 2998 2819 2720 
Q 2896 2883 3011 3000 
Q 3126 3117 3264 3190 
Q 3402 3264 3557 3299 
Q 3712 3334 3869 3334 
Q 4141 3334 4352 3251 
Q 4563 3168 4707 3008 
Q 4851 2848 4926 2617 
Q 5002 2387 5002 2090 
L 5002 0 
L 4211 0 
L 4211 2090 
Q 4211 2403 4073 2561 
Q 3936 2720 3670 2720 
Q 3549 2720 3445 2678 
Q 3341 2637 3262 2558 
Q 3184 2480 3139 2361 
Q 3094 2243 3094 2090 
L 3094 0 
L 2301 0 
L 2301 2090 
Q 2301 2419 2168 2569 
Q 2035 2720 1779 2720 
Q 1606 2720 1457 2635 
Q 1309 2550 1181 2403 
L 1181 0 
L 390 0 
z
" transform="scale(0.015625)"/>
     </defs>
     <use xlink:href="#Lato-Bold-48"/>
     <use xlink:href="#Lato-Bold-69" x="76.300018"/>
     <use xlink:href="#Lato-Bold-73" x="101.700012"/>
     <use xlink:href="#Lato-Bold-74" x="145.650009"/>
     <use xlink:href="#Lato-Bold-6f" x="182.475006"/>
     <use xlink:href="#Lato-Bold-67" x="239.550018"/>
     <use xlink:href="#Lato-Bold-72" x="292.350021"/>
     <use xlink:href="#Lato-Bold-61" x="329.025024"/>
     <use xlink:href="#Lato-Bold-6d" x="379.775024"/>
    </g>
   </g>
  </g>
  <g id="axes_3">
   <g id="patch_30">
    <path d="M 43.68 304.02 
L 241.44 304.02 
L 241.44 187.17 
L 43.68 187.17 
L 43.68 304.02 
z
" style="fill: none"/>
   </g>
   <g id="matplotlib.axis_5">
    <g id="xtick_35">
     <g id="line2d_50">
      <g>
       <use xlink:href="#md0422d477b" x="83.702857" y="304.02" style="stroke: #000000; stroke-width: 0.5"/>
      </g>
     </g>
     <g id="text_8">
      <!-- 0 -->
      <g transform="translate(80.802857 320.885625) scale(0.1 -0.1)">
       <use xlink:href="#Lato-Regular-30"/>
      </g>
     </g>
    </g>
    <g id="xtick_36">
     <g id="line2d_51">
      <g>
       <use xlink:href="#md0422d477b" x="130.788571" y="304.02" style="stroke: #000000; stroke-width: 0.5"/>
      </g>
     </g>
     <g id="text_9">
      <!-- 2 -->
      <g transform="translate(127.888571 320.885625) scale(0.1 -0.1)">
       <use xlink:href="#Lato-Regular-32"/>
      </g>
     </g>
    </g>
    <g id="xtick_37">
     <g id="line2d_52">
      <g>
       <use xlink:href="#md0422d477b" x="177.874286" y="304.02" style="stroke: #000000; stroke-width: 0.5"/>
      </g>
     </g>
     <g id="text_10">
      <!-- 4 -->
      <g transform="translate(174.974286 320.885625) scale(0.1 -0.1)">
       <use xlink:href="#Lato-Regular-34"/>
      </g>
     </g>
    </g>
    <g id="xtick_38">
     <g id="line2d_53">
      <g>
       <use xlink:href="#md0422d477b" x="224.96" y="304.02" style="stroke: #000000; stroke-width: 0.5"/>
      </g>
     </g>
     <g id="text_11">
      <!-- 6 -->
      <g transform="translate(222.06 320.885625) scale(0.1 -0.1)">
       <defs>
        <path id="Lato-Regular-36" d="M 1517 2867 
Q 1453 2790 1398 2716 
Q 1344 2643 1290 2573 
Q 1453 2685 1649 2747 
Q 1846 2810 2077 2810 
Q 2355 2810 2601 2718 
Q 2848 2627 3032 2452 
Q 3216 2278 3325 2024 
Q 3434 1770 3434 1443 
Q 3434 1126 3318 854 
Q 3203 582 2996 380 
Q 2790 179 2500 64 
Q 2211 -51 1862 -51 
Q 1517 -51 1235 59 
Q 954 170 757 373 
Q 560 576 453 865 
Q 346 1155 346 1514 
Q 346 1814 478 2155 
Q 611 2496 902 2883 
L 2067 4448 
Q 2112 4506 2190 4546 
Q 2269 4586 2371 4586 
L 2877 4586 
L 1517 2867 
z
M 893 1414 
Q 893 1194 957 1011 
Q 1021 829 1144 697 
Q 1267 566 1444 494 
Q 1622 422 1850 422 
Q 2080 422 2267 496 
Q 2454 570 2587 701 
Q 2720 832 2792 1011 
Q 2864 1190 2864 1402 
Q 2864 1626 2793 1806 
Q 2723 1987 2593 2113 
Q 2464 2240 2285 2307 
Q 2106 2374 1891 2374 
Q 1661 2374 1475 2296 
Q 1290 2218 1160 2085 
Q 1030 1952 961 1777 
Q 893 1603 893 1414 
z
" transform="scale(0.015625)"/>
       </defs>
       <use xlink:href="#Lato-Regular-36"/>
      </g>
     </g>
    </g>
    <g id="xtick_39">
     <g id="line2d_54">
      <g>
       <use xlink:href="#m372eee9710" x="48.388571" y="304.02" style="stroke: #000000; stroke-width: 0.5"/>
      </g>
     </g>
    </g>
    <g id="xtick_40">
     <g id="line2d_55">
      <g>
       <use xlink:href="#m372eee9710" x="60.16" y="304.02" style="stroke: #000000; stroke-width: 0.5"/>
      </g>
     </g>
    </g>
    <g id="xtick_41">
     <g id="line2d_56">
      <g>
       <use xlink:href="#m372eee9710" x="71.931429" y="304.02" style="stroke: #000000; stroke-width: 0.5"/>
      </g>
     </g>
    </g>
    <g id="xtick_42">
     <g id="line2d_57">
      <g>
       <use xlink:href="#m372eee9710" x="95.474286" y="304.02" style="stroke: #000000; stroke-width: 0.5"/>
      </g>
     </g>
    </g>
    <g id="xtick_43">
     <g id="line2d_58">
      <g>
       <use xlink:href="#m372eee9710" x="107.245714" y="304.02" style="stroke: #000000; stroke-width: 0.5"/>
      </g>
     </g>
    </g>
    <g id="xtick_44">
     <g id="line2d_59">
      <g>
       <use xlink:href="#m372eee9710" x="119.017143" y="304.02" style="stroke: #000000; stroke-width: 0.5"/>
      </g>
     </g>
    </g>
    <g id="xtick_45">
     <g id="line2d_60">
      <g>
       <use xlink:href="#m372eee9710" x="142.56" y="304.02" style="stroke: #000000; stroke-width: 0.5"/>
      </g>
     </g>
    </g>
    <g id="xtick_46">
     <g id="line2d_61">
      <g>
       <use xlink:href="#m372eee9710" x="154.331429" y="304.02" style="stroke: #000000; stroke-width: 0.5"/>
      </g>
     </g>
    </g>
    <g id="xtick_47">
     <g id="line2d_62">
      <g>
       <use xlink:href="#m372eee9710" x="166.102857" y="304.02" style="stroke: #000000; stroke-width: 0.5"/>
      </g>
     </g>
    </g>
    <g id="xtick_48">
     <g id="line2d_63">
      <g>
       <use xlink:href="#m372eee9710" x="189.645714" y="304.02" style="stroke: #000000; stroke-width: 0.5"/>
      </g>
     </g>
    </g>
    <g id="xtick_49">
     <g id="line2d_64">
      <g>
       <use xlink:href="#m372eee9710" x="201.417143" y="304.02" style="stroke: #000000; stroke-width: 0.5"/>
      </g>
     </g>
    </g>
    <g id="xtick_50">
     <g id="line2d_65">
      <g>
       <use xlink:href="#m372eee9710" x="213.188571" y="304.02" style="stroke: #000000; stroke-width: 0.5"/>
      </g>
     </g>
    </g>
    <g id="xtick_51">
     <g id="line2d_66">
      <g>
       <use xlink:href="#m372eee9710" x="236.731429" y="304.02" style="stroke: #000000; stroke-width: 0.5"/>
      </g>
     </g>
    </g>
    <g id="text_12">
     <!-- $x$ -->
     <g transform="translate(139.56 334.030937) scale(0.1 -0.1)">
      <defs>
       <path id="DejaVuSans-Oblique-78" d="M 3841 3500 
L 2234 1784 
L 3219 0 
L 2559 0 
L 1819 1388 
L 531 0 
L -166 0 
L 1556 1844 
L 641 3500 
L 1300 3500 
L 1972 2234 
L 3144 3500 
L 3841 3500 
z
" transform="scale(0.015625)"/>
      </defs>
      <use xlink:href="#DejaVuSans-Oblique-78" transform="translate(0 0.3125)"/>
     </g>
    </g>
   </g>
   <g id="matplotlib.axis_6">
    <g id="ytick_11">
     <g id="line2d_67">
      <path d="M 43.68 304.02 
L 241.44 304.02 
" clip-path="url(#p0e72bb1066)" style="fill: none; stroke: #cccccc; stroke-width: 0.5; stroke-linecap: square"/>
     </g>
     <g id="text_13">
      <!-- 0.0 -->
      <g transform="translate(26.220625 307.702812) scale(0.1 -0.1)">
       <use xlink:href="#Lato-Regular-30"/>
       <use xlink:href="#Lato-Regular-2e" x="58"/>
       <use xlink:href="#Lato-Regular-30" x="81.600006"/>
      </g>
     </g>
    </g>
    <g id="ytick_12">
     <g id="line2d_68">
      <path d="M 43.68 277.463182 
L 241.44 277.463182 
" clip-path="url(#p0e72bb1066)" style="fill: none; stroke: #cccccc; stroke-width: 0.5; stroke-linecap: square"/>
     </g>
     <g id="text_14">
      <!-- 0.1 -->
      <g transform="translate(26.220625 281.145994) scale(0.1 -0.1)">
       <use xlink:href="#Lato-Regular-30"/>
       <use xlink:href="#Lato-Regular-2e" x="58"/>
       <use xlink:href="#Lato-Regular-31" x="81.600006"/>
      </g>
     </g>
    </g>
    <g id="ytick_13">
     <g id="line2d_69">
      <path d="M 43.68 250.906364 
L 241.44 250.906364 
" clip-path="url(#p0e72bb1066)" style="fill: none; stroke: #cccccc; stroke-width: 0.5; stroke-linecap: square"/>
     </g>
     <g id="text_15">
      <!-- 0.2 -->
      <g transform="translate(26.220625 254.589176) scale(0.1 -0.1)">
       <use xlink:href="#Lato-Regular-30"/>
       <use xlink:href="#Lato-Regular-2e" x="58"/>
       <use xlink:href="#Lato-Regular-32" x="81.600006"/>
      </g>
     </g>
    </g>
    <g id="ytick_14">
     <g id="line2d_70">
      <path d="M 43.68 224.349545 
L 241.44 224.349545 
" clip-path="url(#p0e72bb1066)" style="fill: none; stroke: #cccccc; stroke-width: 0.5; stroke-linecap: square"/>
     </g>
     <g id="text_16">
      <!-- 0.3 -->
      <g transform="translate(26.220625 228.032358) scale(0.1 -0.1)">
       <use xlink:href="#Lato-Regular-30"/>
       <use xlink:href="#Lato-Regular-2e" x="58"/>
       <use xlink:href="#Lato-Regular-33" x="81.600006"/>
      </g>
     </g>
    </g>
    <g id="ytick_15">
     <g id="line2d_71">
      <path d="M 43.68 197.792727 
L 241.44 197.792727 
" clip-path="url(#p0e72bb1066)" style="fill: none; stroke: #cccccc; stroke-width: 0.5; stroke-linecap: square"/>
     </g>
     <g id="text_17">
      <!-- 0.4 -->
      <g transform="translate(26.220625 201.47554) scale(0.1 -0.1)">
       <use xlink:href="#Lato-Regular-30"/>
       <use xlink:href="#Lato-Regular-2e" x="58"/>
       <use xlink:href="#Lato-Regular-34" x="81.600006"/>
      </g>
     </g>
    </g>
    <g id="text_18">
     <!-- $P(x)$ -->
     <g transform="translate(20.545625 255.495) rotate(-90) scale(0.1 -0.1)">
      <defs>
       <path id="DejaVuSans-Oblique-50" d="M 1081 4666 
L 2541 4666 
Q 3178 4666 3512 4369 
Q 3847 4072 3847 3500 
Q 3847 2731 3353 2303 
Q 2859 1875 1966 1875 
L 1172 1875 
L 806 0 
L 172 0 
L 1081 4666 
z
M 1613 4147 
L 1275 2394 
L 2069 2394 
Q 2606 2394 2893 2669 
Q 3181 2944 3181 3456 
Q 3181 3784 2986 3965 
Q 2791 4147 2438 4147 
L 1613 4147 
z
" transform="scale(0.015625)"/>
       <path id="DejaVuSans-28" d="M 1984 4856 
Q 1566 4138 1362 3434 
Q 1159 2731 1159 2009 
Q 1159 1288 1364 580 
Q 1569 -128 1984 -844 
L 1484 -844 
Q 1016 -109 783 600 
Q 550 1309 550 2009 
Q 550 2706 781 3412 
Q 1013 4119 1484 4856 
L 1984 4856 
z
" transform="scale(0.015625)"/>
       <path id="DejaVuSans-29" d="M 513 4856 
L 1013 4856 
Q 1481 4119 1714 3412 
Q 1947 2706 1947 2009 
Q 1947 1309 1714 600 
Q 1481 -109 1013 -844 
L 513 -844 
Q 928 -128 1133 580 
Q 1338 1288 1338 2009 
Q 1338 2731 1133 3434 
Q 928 4138 513 4856 
z
" transform="scale(0.015625)"/>
      </defs>
      <use xlink:href="#DejaVuSans-Oblique-50" transform="translate(0 0.125)"/>
      <use xlink:href="#DejaVuSans-28" transform="translate(60.302734 0.125)"/>
      <use xlink:href="#DejaVuSans-Oblique-78" transform="translate(99.316406 0.125)"/>
      <use xlink:href="#DejaVuSans-29" transform="translate(158.496094 0.125)"/>
     </g>
    </g>
   </g>
   <g id="line2d_72">
    <path d="M 60.16 303.788243 
L 61.824646 303.72391 
L 63.489293 303.643605 
L 65.153939 303.543906 
L 66.818586 303.420802 
L 68.483232 303.269628 
L 70.147879 303.085 
L 71.812525 302.860755 
L 73.477172 302.589896 
L 75.141818 302.264548 
L 76.806465 301.87593 
L 78.471111 301.41434 
L 80.135758 300.869167 
L 81.800404 300.228932 
L 83.465051 299.48135 
L 85.129697 298.613447 
L 86.794343 297.611698 
L 88.45899 296.46222 
L 90.123636 295.151008 
L 91.788283 293.664214 
L 93.452929 291.988478 
L 95.117576 290.11129 
L 96.782222 288.021404 
L 98.446869 285.70927 
L 100.111515 283.167498 
L 101.776162 280.391321 
L 103.440808 277.379065 
L 105.105455 274.132593 
L 106.770101 270.657718 
L 108.434747 266.964556 
L 110.099394 263.067819 
L 111.76404 258.987008 
L 113.428687 254.746511 
L 115.093333 250.375576 
L 116.75798 245.908164 
L 118.422626 241.382652 
L 120.087273 236.841412 
L 121.751919 232.330239 
L 123.416566 227.897658 
L 125.081212 223.594105 
L 126.745859 219.471012 
L 128.410505 215.57981 
L 130.075152 211.970873 
L 131.739798 208.69245 
L 133.404444 205.789594 
L 135.069091 203.303137 
L 136.733737 201.268731 
L 138.398384 199.716004 
L 140.06303 198.667839 
L 141.727677 198.139813 
L 143.392323 198.139813 
L 145.05697 198.667839 
L 146.721616 199.716004 
L 148.386263 201.268731 
L 150.050909 203.303137 
L 151.715556 205.789594 
L 153.380202 208.69245 
L 155.044848 211.970873 
L 156.709495 215.57981 
L 158.374141 219.471012 
L 160.038788 223.594105 
L 161.703434 227.897658 
L 163.368081 232.330239 
L 165.032727 236.841412 
L 166.697374 241.382652 
L 168.36202 245.908164 
L 170.026667 250.375576 
L 171.691313 254.746511 
L 173.35596 258.987008 
L 175.020606 263.067819 
L 176.685253 266.964556 
L 178.349899 270.657718 
L 180.014545 274.132593 
L 181.679192 277.379065 
L 183.343838 280.391321 
L 185.008485 283.167498 
L 186.673131 285.70927 
L 188.337778 288.021404 
L 190.002424 290.11129 
L 191.667071 291.988478 
L 193.331717 293.664214 
L 194.996364 295.151008 
L 196.66101 296.46222 
L 198.325657 297.611698 
L 199.990303 298.613447 
L 201.654949 299.48135 
L 203.319596 300.228932 
L 204.984242 300.869167 
L 206.648889 301.41434 
L 208.313535 301.87593 
L 209.978182 302.264548 
L 211.642828 302.589896 
L 213.307475 302.860755 
L 214.972121 303.085 
L 216.636768 303.269628 
L 218.301414 303.420802 
L 219.966061 303.543906 
L 221.630707 303.643605 
L 223.295354 303.72391 
L 224.96 303.788243 
" clip-path="url(#p0e72bb1066)" style="fill: none; stroke: #ff7f0e; stroke-linecap: square"/>
   </g>
   <g id="line2d_73">
    <defs>
     <path id="m31daef50b5" d="M 0 1.5 
C 0.397805 1.5 0.77937 1.341951 1.06066 1.06066 
C 1.341951 0.77937 1.5 0.397805 1.5 0 
C 1.5 -0.397805 1.341951 -0.77937 1.06066 -1.06066 
C 0.77937 -1.341951 0.397805 -1.5 0 -1.5 
C -0.397805 -1.5 -0.77937 -1.341951 -1.06066 -1.06066 
C -1.341951 -0.77937 -1.5 -0.397805 -1.5 0 
C -1.5 0.397805 -1.341951 0.77937 -1.06066 1.06066 
C -0.77937 1.341951 -0.397805 1.5 0 1.5 
z
" style="stroke: #1f77b4"/>
    </defs>
    <g clip-path="url(#p0e72bb1066)">
     <use xlink:href="#m31daef50b5" x="60.16" y="303.788243" style="fill: #1f77b4; stroke: #1f77b4"/>
     <use xlink:href="#m31daef50b5" x="63.523265" y="303.641777" style="fill: #1f77b4; stroke: #1f77b4"/>
     <use xlink:href="#m31daef50b5" x="66.886531" y="303.415216" style="fill: #1f77b4; stroke: #1f77b4"/>
     <use xlink:href="#m31daef50b5" x="70.249796" y="303.072477" style="fill: #1f77b4; stroke: #1f77b4"/>
     <use xlink:href="#m31daef50b5" x="73.613061" y="302.565492" style="fill: #1f77b4; stroke: #1f77b4"/>
     <use xlink:href="#m31daef50b5" x="76.976327" y="301.832343" style="fill: #1f77b4; stroke: #1f77b4"/>
     <use xlink:href="#m31daef50b5" x="80.339592" y="300.796118" style="fill: #1f77b4; stroke: #1f77b4"/>
     <use xlink:href="#m31daef50b5" x="83.702857" y="299.365041" style="fill: #1f77b4; stroke: #1f77b4"/>
     <use xlink:href="#m31daef50b5" x="87.066122" y="297.43449" style="fill: #1f77b4; stroke: #1f77b4"/>
     <use xlink:href="#m31daef50b5" x="90.429388" y="294.89149" style="fill: #1f77b4; stroke: #1f77b4"/>
     <use xlink:href="#m31daef50b5" x="93.792653" y="291.622127" style="fill: #1f77b4; stroke: #1f77b4"/>
     <use xlink:href="#m31daef50b5" x="97.155918" y="287.521999" style="fill: #1f77b4; stroke: #1f77b4"/>
     <use xlink:href="#m31daef50b5" x="100.519184" y="282.509411" style="fill: #1f77b4; stroke: #1f77b4"/>
     <use xlink:href="#m31daef50b5" x="103.882449" y="276.540417" style="fill: #1f77b4; stroke: #1f77b4"/>
     <use xlink:href="#m31daef50b5" x="107.245714" y="269.624248" style="fill: #1f77b4; stroke: #1f77b4"/>
     <use xlink:href="#m31daef50b5" x="110.60898" y="261.837109" style="fill: #1f77b4; stroke: #1f77b4"/>
     <use xlink:href="#m31daef50b5" x="113.972245" y="253.332051" style="fill: #1f77b4; stroke: #1f77b4"/>
     <use xlink:href="#m31daef50b5" x="117.33551" y="244.342594" style="fill: #1f77b4; stroke: #1f77b4"/>
     <use xlink:href="#m31daef50b5" x="120.698776" y="235.178234" style="fill: #1f77b4; stroke: #1f77b4"/>
     <use xlink:href="#m31daef50b5" x="124.062041" y="226.210805" style="fill: #1f77b4; stroke: #1f77b4"/>
     <use xlink:href="#m31daef50b5" x="127.425306" y="217.851867" style="fill: #1f77b4; stroke: #1f77b4"/>
     <use xlink:href="#m31daef50b5" x="130.788571" y="210.522651" style="fill: #1f77b4; stroke: #1f77b4"/>
     <use xlink:href="#m31daef50b5" x="134.151837" y="204.619458" style="fill: #1f77b4; stroke: #1f77b4"/>
     <use xlink:href="#m31daef50b5" x="137.515102" y="200.478355" style="fill: #1f77b4; stroke: #1f77b4"/>
     <use xlink:href="#m31daef50b5" x="140.878367" y="198.343551" style="fill: #1f77b4; stroke: #1f77b4"/>
     <use xlink:href="#m31daef50b5" x="144.241633" y="198.343551" style="fill: #1f77b4; stroke: #1f77b4"/>
     <use xlink:href="#m31daef50b5" x="147.604898" y="200.478355" style="fill: #1f77b4; stroke: #1f77b4"/>
     <use xlink:href="#m31daef50b5" x="150.968163" y="204.619458" style="fill: #1f77b4; stroke: #1f77b4"/>
     <use xlink:href="#m31daef50b5" x="154.331429" y="210.522651" style="fill: #1f77b4; stroke: #1f77b4"/>
     <use xlink:href="#m31daef50b5" x="157.694694" y="217.851867" style="fill: #1f77b4; stroke: #1f77b4"/>
     <use xlink:href="#m31daef50b5" x="161.057959" y="226.210805" style="fill: #1f77b4; stroke: #1f77b4"/>
     <use xlink:href="#m31daef50b5" x="164.421224" y="235.178234" style="fill: #1f77b4; stroke: #1f77b4"/>
     <use xlink:href="#m31daef50b5" x="167.78449" y="244.342594" style="fill: #1f77b4; stroke: #1f77b4"/>
     <use xlink:href="#m31daef50b5" x="171.147755" y="253.332051" style="fill: #1f77b4; stroke: #1f77b4"/>
     <use xlink:href="#m31daef50b5" x="174.51102" y="261.837109" style="fill: #1f77b4; stroke: #1f77b4"/>
     <use xlink:href="#m31daef50b5" x="177.874286" y="269.624248" style="fill: #1f77b4; stroke: #1f77b4"/>
     <use xlink:href="#m31daef50b5" x="181.237551" y="276.540417" style="fill: #1f77b4; stroke: #1f77b4"/>
     <use xlink:href="#m31daef50b5" x="184.600816" y="282.509411" style="fill: #1f77b4; stroke: #1f77b4"/>
     <use xlink:href="#m31daef50b5" x="187.964082" y="287.521999" style="fill: #1f77b4; stroke: #1f77b4"/>
     <use xlink:href="#m31daef50b5" x="191.327347" y="291.622127" style="fill: #1f77b4; stroke: #1f77b4"/>
     <use xlink:href="#m31daef50b5" x="194.690612" y="294.89149" style="fill: #1f77b4; stroke: #1f77b4"/>
     <use xlink:href="#m31daef50b5" x="198.053878" y="297.43449" style="fill: #1f77b4; stroke: #1f77b4"/>
     <use xlink:href="#m31daef50b5" x="201.417143" y="299.365041" style="fill: #1f77b4; stroke: #1f77b4"/>
     <use xlink:href="#m31daef50b5" x="204.780408" y="300.796118" style="fill: #1f77b4; stroke: #1f77b4"/>
     <use xlink:href="#m31daef50b5" x="208.143673" y="301.832343" style="fill: #1f77b4; stroke: #1f77b4"/>
     <use xlink:href="#m31daef50b5" x="211.506939" y="302.565492" style="fill: #1f77b4; stroke: #1f77b4"/>
     <use xlink:href="#m31daef50b5" x="214.870204" y="303.072477" style="fill: #1f77b4; stroke: #1f77b4"/>
     <use xlink:href="#m31daef50b5" x="218.233469" y="303.415216" style="fill: #1f77b4; stroke: #1f77b4"/>
     <use xlink:href="#m31daef50b5" x="221.596735" y="303.641777" style="fill: #1f77b4; stroke: #1f77b4"/>
     <use xlink:href="#m31daef50b5" x="224.96" y="303.788243" style="fill: #1f77b4; stroke: #1f77b4"/>
    </g>
   </g>
   <g id="patch_31">
    <path d="M 43.68 304.02 
L 241.44 304.02 
" style="fill: none; stroke: #000000; stroke-width: 0.5; stroke-linejoin: miter; stroke-linecap: square"/>
   </g>
   <g id="text_19">
    <!-- Interpolation -->
    <g transform="translate(43.68 175.17) scale(0.12 -0.12)">
     <defs>
      <path id="Lato-Bold-49" d="M 1379 0 
L 515 0 
L 515 4627 
L 1379 4627 
L 1379 0 
z
" transform="scale(0.015625)"/>
      <path id="Lato-Bold-65" d="M 1789 3334 
Q 2099 3334 2361 3235 
Q 2624 3136 2813 2945 
Q 3002 2755 3109 2478 
Q 3216 2202 3216 1846 
Q 3216 1667 3177 1604 
Q 3139 1542 3030 1542 
L 998 1542 
Q 1018 1290 1088 1106 
Q 1158 922 1273 802 
Q 1389 682 1547 622 
Q 1706 563 1898 563 
Q 2090 563 2229 608 
Q 2368 653 2472 707 
Q 2576 762 2654 806 
Q 2733 851 2806 851 
Q 2906 851 2954 778 
L 3181 490 
Q 3050 336 2886 232 
Q 2723 128 2545 65 
Q 2368 3 2184 -22 
Q 2000 -48 1827 -48 
Q 1485 -48 1190 65 
Q 896 179 678 401 
Q 461 624 336 952 
Q 211 1280 211 1712 
Q 211 2048 320 2344 
Q 429 2640 632 2859 
Q 835 3078 1128 3206 
Q 1421 3334 1789 3334 
z
M 1805 2768 
Q 1459 2768 1264 2573 
Q 1069 2378 1014 2019 
L 2506 2019 
Q 2506 2173 2462 2309 
Q 2419 2445 2332 2547 
Q 2246 2650 2113 2709 
Q 1981 2768 1805 2768 
z
" transform="scale(0.015625)"/>
      <path id="Lato-Bold-70" d="M 390 -1072 
L 390 3283 
L 874 3283 
Q 1027 3283 1075 3139 
L 1139 2835 
Q 1338 3062 1595 3203 
Q 1853 3344 2198 3344 
Q 2467 3344 2689 3232 
Q 2912 3120 3073 2907 
Q 3235 2694 3323 2382 
Q 3411 2070 3411 1667 
Q 3411 1299 3312 985 
Q 3213 672 3029 441 
Q 2845 211 2584 81 
Q 2323 -48 2000 -48 
Q 1722 -48 1528 37 
Q 1334 122 1181 272 
L 1181 -1072 
L 390 -1072 
z
M 1926 2720 
Q 1680 2720 1505 2616 
Q 1331 2512 1181 2323 
L 1181 851 
Q 1315 685 1473 619 
Q 1632 554 1818 554 
Q 1997 554 2141 621 
Q 2285 688 2385 825 
Q 2486 963 2540 1172 
Q 2595 1382 2595 1667 
Q 2595 1955 2548 2155 
Q 2502 2355 2416 2480 
Q 2330 2605 2206 2662 
Q 2083 2720 1926 2720 
z
" transform="scale(0.015625)"/>
      <path id="Lato-Bold-6c" d="M 1190 4755 
L 1190 0 
L 400 0 
L 400 4755 
L 1190 4755 
z
" transform="scale(0.015625)"/>
     </defs>
     <use xlink:href="#Lato-Bold-49"/>
     <use xlink:href="#Lato-Bold-6e" x="28.899994"/>
     <use xlink:href="#Lato-Bold-74" x="84.550003"/>
     <use xlink:href="#Lato-Bold-65" x="121.375"/>
     <use xlink:href="#Lato-Bold-72" x="174.775009"/>
     <use xlink:href="#Lato-Bold-70" x="212.075012"/>
     <use xlink:href="#Lato-Bold-6f" x="268.875015"/>
     <use xlink:href="#Lato-Bold-6c" x="326.325027"/>
     <use xlink:href="#Lato-Bold-61" x="351.175034"/>
     <use xlink:href="#Lato-Bold-74" x="401.175034"/>
     <use xlink:href="#Lato-Bold-69" x="438.375031"/>
     <use xlink:href="#Lato-Bold-6f" x="463.775024"/>
     <use xlink:href="#Lato-Bold-6e" x="521.225037"/>
    </g>
   </g>
  </g>
  <g id="axes_4">
   <g id="patch_32">
    <path d="M 252.24 304.02 
L 450 304.02 
L 450 187.17 
L 252.24 187.17 
L 252.24 304.02 
z
" style="fill: none"/>
   </g>
   <g id="matplotlib.axis_7">
    <g id="xtick_52">
     <g id="line2d_74">
      <g>
       <use xlink:href="#md0422d477b" x="292.262857" y="304.02" style="stroke: #000000; stroke-width: 0.5"/>
      </g>
     </g>
     <g id="text_20">
      <!-- 0 -->
      <g transform="translate(289.362857 320.885625) scale(0.1 -0.1)">
       <use xlink:href="#Lato-Regular-30"/>
      </g>
     </g>
    </g>
    <g id="xtick_53">
     <g id="line2d_75">
      <g>
       <use xlink:href="#md0422d477b" x="339.348571" y="304.02" style="stroke: #000000; stroke-width: 0.5"/>
      </g>
     </g>
     <g id="text_21">
      <!-- 2 -->
      <g transform="translate(336.448571 320.885625) scale(0.1 -0.1)">
       <use xlink:href="#Lato-Regular-32"/>
      </g>
     </g>
    </g>
    <g id="xtick_54">
     <g id="line2d_76">
      <g>
       <use xlink:href="#md0422d477b" x="386.434286" y="304.02" style="stroke: #000000; stroke-width: 0.5"/>
      </g>
     </g>
     <g id="text_22">
      <!-- 4 -->
      <g transform="translate(383.534286 320.885625) scale(0.1 -0.1)">
       <use xlink:href="#Lato-Regular-34"/>
      </g>
     </g>
    </g>
    <g id="xtick_55">
     <g id="line2d_77">
      <g>
       <use xlink:href="#md0422d477b" x="433.52" y="304.02" style="stroke: #000000; stroke-width: 0.5"/>
      </g>
     </g>
     <g id="text_23">
      <!-- 6 -->
      <g transform="translate(430.62 320.885625) scale(0.1 -0.1)">
       <use xlink:href="#Lato-Regular-36"/>
      </g>
     </g>
    </g>
    <g id="xtick_56">
     <g id="line2d_78">
      <g>
       <use xlink:href="#m372eee9710" x="256.948571" y="304.02" style="stroke: #000000; stroke-width: 0.5"/>
      </g>
     </g>
    </g>
    <g id="xtick_57">
     <g id="line2d_79">
      <g>
       <use xlink:href="#m372eee9710" x="268.72" y="304.02" style="stroke: #000000; stroke-width: 0.5"/>
      </g>
     </g>
    </g>
    <g id="xtick_58">
     <g id="line2d_80">
      <g>
       <use xlink:href="#m372eee9710" x="280.491429" y="304.02" style="stroke: #000000; stroke-width: 0.5"/>
      </g>
     </g>
    </g>
    <g id="xtick_59">
     <g id="line2d_81">
      <g>
       <use xlink:href="#m372eee9710" x="304.034286" y="304.02" style="stroke: #000000; stroke-width: 0.5"/>
      </g>
     </g>
    </g>
    <g id="xtick_60">
     <g id="line2d_82">
      <g>
       <use xlink:href="#m372eee9710" x="315.805714" y="304.02" style="stroke: #000000; stroke-width: 0.5"/>
      </g>
     </g>
    </g>
    <g id="xtick_61">
     <g id="line2d_83">
      <g>
       <use xlink:href="#m372eee9710" x="327.577143" y="304.02" style="stroke: #000000; stroke-width: 0.5"/>
      </g>
     </g>
    </g>
    <g id="xtick_62">
     <g id="line2d_84">
      <g>
       <use xlink:href="#m372eee9710" x="351.12" y="304.02" style="stroke: #000000; stroke-width: 0.5"/>
      </g>
     </g>
    </g>
    <g id="xtick_63">
     <g id="line2d_85">
      <g>
       <use xlink:href="#m372eee9710" x="362.891429" y="304.02" style="stroke: #000000; stroke-width: 0.5"/>
      </g>
     </g>
    </g>
    <g id="xtick_64">
     <g id="line2d_86">
      <g>
       <use xlink:href="#m372eee9710" x="374.662857" y="304.02" style="stroke: #000000; stroke-width: 0.5"/>
      </g>
     </g>
    </g>
    <g id="xtick_65">
     <g id="line2d_87">
      <g>
       <use xlink:href="#m372eee9710" x="398.205714" y="304.02" style="stroke: #000000; stroke-width: 0.5"/>
      </g>
     </g>
    </g>
    <g id="xtick_66">
     <g id="line2d_88">
      <g>
       <use xlink:href="#m372eee9710" x="409.977143" y="304.02" style="stroke: #000000; stroke-width: 0.5"/>
      </g>
     </g>
    </g>
    <g id="xtick_67">
     <g id="line2d_89">
      <g>
       <use xlink:href="#m372eee9710" x="421.748571" y="304.02" style="stroke: #000000; stroke-width: 0.5"/>
      </g>
     </g>
    </g>
    <g id="xtick_68">
     <g id="line2d_90">
      <g>
       <use xlink:href="#m372eee9710" x="445.291429" y="304.02" style="stroke: #000000; stroke-width: 0.5"/>
      </g>
     </g>
    </g>
   </g>
   <g id="matplotlib.axis_8">
    <g id="ytick_16">
     <g id="line2d_91">
      <path d="M 252.24 304.02 
L 450 304.02 
" clip-path="url(#pca9cfde07b)" style="fill: none; stroke: #cccccc; stroke-width: 0.5; stroke-linecap: square"/>
     </g>
    </g>
    <g id="ytick_17">
     <g id="line2d_92">
      <path d="M 252.24 277.463182 
L 450 277.463182 
" clip-path="url(#pca9cfde07b)" style="fill: none; stroke: #cccccc; stroke-width: 0.5; stroke-linecap: square"/>
     </g>
    </g>
    <g id="ytick_18">
     <g id="line2d_93">
      <path d="M 252.24 250.906364 
L 450 250.906364 
" clip-path="url(#pca9cfde07b)" style="fill: none; stroke: #cccccc; stroke-width: 0.5; stroke-linecap: square"/>
     </g>
    </g>
    <g id="ytick_19">
     <g id="line2d_94">
      <path d="M 252.24 224.349545 
L 450 224.349545 
" clip-path="url(#pca9cfde07b)" style="fill: none; stroke: #cccccc; stroke-width: 0.5; stroke-linecap: square"/>
     </g>
    </g>
    <g id="ytick_20">
     <g id="line2d_95">
      <path d="M 252.24 197.792727 
L 450 197.792727 
" clip-path="url(#pca9cfde07b)" style="fill: none; stroke: #cccccc; stroke-width: 0.5; stroke-linecap: square"/>
     </g>
    </g>
   </g>
   <g id="line2d_96">
    <path d="M 268.72 303.788243 
L 270.384646 303.72391 
L 272.049293 303.643605 
L 273.713939 303.543906 
L 275.378586 303.420802 
L 277.043232 303.269628 
L 278.707879 303.085 
L 280.372525 302.860755 
L 282.037172 302.589896 
L 283.701818 302.264548 
L 285.366465 301.87593 
L 287.031111 301.41434 
L 288.695758 300.869167 
L 290.360404 300.228932 
L 292.025051 299.48135 
L 293.689697 298.613447 
L 295.354343 297.611698 
L 297.01899 296.46222 
L 298.683636 295.151008 
L 300.348283 293.664214 
L 302.012929 291.988478 
L 303.677576 290.11129 
L 305.342222 288.021404 
L 307.006869 285.70927 
L 308.671515 283.167498 
L 310.336162 280.391321 
L 312.000808 277.379065 
L 313.665455 274.132593 
L 315.330101 270.657718 
L 316.994747 266.964556 
L 318.659394 263.067819 
L 320.32404 258.987008 
L 321.988687 254.746511 
L 323.653333 250.375576 
L 325.31798 245.908164 
L 326.982626 241.382652 
L 328.647273 236.841412 
L 330.311919 232.330239 
L 331.976566 227.897658 
L 333.641212 223.594105 
L 335.305859 219.471012 
L 336.970505 215.57981 
L 338.635152 211.970873 
L 340.299798 208.69245 
L 341.964444 205.789594 
L 343.629091 203.303137 
L 345.293737 201.268731 
L 346.958384 199.716004 
L 348.62303 198.667839 
L 350.287677 198.139813 
L 351.952323 198.139813 
L 353.61697 198.667839 
L 355.281616 199.716004 
L 356.946263 201.268731 
L 358.610909 203.303137 
L 360.275556 205.789594 
L 361.940202 208.69245 
L 363.604848 211.970873 
L 365.269495 215.57981 
L 366.934141 219.471012 
L 368.598788 223.594105 
L 370.263434 227.897658 
L 371.928081 232.330239 
L 373.592727 236.841412 
L 375.257374 241.382652 
L 376.92202 245.908164 
L 378.586667 250.375576 
L 380.251313 254.746511 
L 381.91596 258.987008 
L 383.580606 263.067819 
L 385.245253 266.964556 
L 386.909899 270.657718 
L 388.574545 274.132593 
L 390.239192 277.379065 
L 391.903838 280.391321 
L 393.568485 283.167498 
L 395.233131 285.70927 
L 396.897778 288.021404 
L 398.562424 290.11129 
L 400.227071 291.988478 
L 401.891717 293.664214 
L 403.556364 295.151008 
L 405.22101 296.46222 
L 406.885657 297.611698 
L 408.550303 298.613447 
L 410.214949 299.48135 
L 411.879596 300.228932 
L 413.544242 300.869167 
L 415.208889 301.41434 
L 416.873535 301.87593 
L 418.538182 302.264548 
L 420.202828 302.589896 
L 421.867475 302.860755 
L 423.532121 303.085 
L 425.196768 303.269628 
L 426.861414 303.420802 
L 428.526061 303.543906 
L 430.190707 303.643605 
L 431.855354 303.72391 
L 433.52 303.788243 
" clip-path="url(#pca9cfde07b)" style="fill: none; stroke: #ff7f0e; stroke-linecap: square"/>
   </g>
   <g id="LineCollection_3">
    <path d="M 277.969299 304.02 
L 277.969299 197.792727 
" clip-path="url(#pca9cfde07b)" style="fill: none; stroke: #1f77b4"/>
    <path d="M 278.367102 304.02 
L 278.367102 197.792727 
" clip-path="url(#pca9cfde07b)" style="fill: none; stroke: #1f77b4"/>
    <path d="M 322.479079 304.02 
L 322.479079 197.792727 
" clip-path="url(#pca9cfde07b)" style="fill: none; stroke: #1f77b4"/>
    <path d="M 333.160438 304.02 
L 333.160438 197.792727 
" clip-path="url(#pca9cfde07b)" style="fill: none; stroke: #1f77b4"/>
    <path d="M 341.001028 304.02 
L 341.001028 197.792727 
" clip-path="url(#pca9cfde07b)" style="fill: none; stroke: #1f77b4"/>
    <path d="M 347.837442 304.02 
L 347.837442 197.792727 
" clip-path="url(#pca9cfde07b)" style="fill: none; stroke: #1f77b4"/>
    <path d="M 354.402558 304.02 
L 354.402558 197.792727 
" clip-path="url(#pca9cfde07b)" style="fill: none; stroke: #1f77b4"/>
    <path d="M 361.238972 304.02 
L 361.238972 197.792727 
" clip-path="url(#pca9cfde07b)" style="fill: none; stroke: #1f77b4"/>
    <path d="M 369.079562 304.02 
L 369.079562 197.792727 
" clip-path="url(#pca9cfde07b)" style="fill: none; stroke: #1f77b4"/>
    <path d="M 379.760921 304.02 
L 379.760921 197.792727 
" clip-path="url(#pca9cfde07b)" style="fill: none; stroke: #1f77b4"/>
    <path d="M 423.872898 304.02 
L 423.872898 197.792727 
" clip-path="url(#pca9cfde07b)" style="fill: none; stroke: #1f77b4"/>
    <path d="M 424.270701 304.02 
L 424.270701 197.792727 
" clip-path="url(#pca9cfde07b)" style="fill: none; stroke: #1f77b4"/>
   </g>
   <g id="patch_33">
    <path d="M 252.24 304.02 
L 450 304.02 
" style="fill: none; stroke: #000000; stroke-width: 0.5; stroke-linejoin: miter; stroke-linecap: square"/>
   </g>
   <g id="text_24">
    <!-- Quantiles -->
    <g transform="translate(252.24 175.17) scale(0.12 -0.12)">
     <defs>
      <path id="Lato-Bold-51" d="M 4931 2314 
Q 4931 2003 4867 1720 
Q 4803 1437 4683 1189 
Q 4563 941 4390 734 
Q 4218 528 3997 371 
L 5171 -906 
L 4461 -906 
Q 4307 -906 4184 -864 
Q 4061 -822 3958 -710 
L 3280 38 
Q 3117 -6 2945 -28 
Q 2774 -51 2589 -51 
Q 2064 -51 1632 126 
Q 1200 304 891 621 
Q 582 938 412 1371 
Q 243 1805 243 2314 
Q 243 2822 412 3256 
Q 582 3690 891 4006 
Q 1200 4323 1632 4500 
Q 2064 4678 2589 4678 
Q 2941 4678 3251 4596 
Q 3562 4515 3821 4366 
Q 4080 4218 4286 4005 
Q 4493 3792 4637 3529 
Q 4781 3267 4856 2960 
Q 4931 2653 4931 2314 
z
M 4051 2314 
Q 4051 2694 3948 2996 
Q 3846 3299 3657 3510 
Q 3469 3722 3198 3834 
Q 2928 3946 2589 3946 
Q 2250 3946 1979 3834 
Q 1709 3722 1518 3510 
Q 1328 3299 1225 2996 
Q 1123 2694 1123 2314 
Q 1123 1933 1225 1630 
Q 1328 1328 1518 1118 
Q 1709 909 1979 797 
Q 2250 685 2589 685 
Q 2928 685 3198 797 
Q 3469 909 3657 1118 
Q 3846 1328 3948 1630 
Q 4051 1933 4051 2314 
z
" transform="scale(0.015625)"/>
     </defs>
     <use xlink:href="#Lato-Bold-51"/>
     <use xlink:href="#Lato-Bold-75" x="80.175018"/>
     <use xlink:href="#Lato-Bold-61" x="136.575027"/>
     <use xlink:href="#Lato-Bold-6e" x="187.325027"/>
     <use xlink:href="#Lato-Bold-74" x="242.975037"/>
     <use xlink:href="#Lato-Bold-69" x="280.175034"/>
     <use xlink:href="#Lato-Bold-6c" x="305.575027"/>
     <use xlink:href="#Lato-Bold-65" x="330.425034"/>
     <use xlink:href="#Lato-Bold-73" x="383.825043"/>
    </g>
   </g>
  </g>
 </g>
 <defs>
  <clipPath id="p8e764e4a00">
   <rect x="43.68" y="32.16" width="197.76" height="116.85"/>
  </clipPath>
  <clipPath id="p6726e7fa0b">
   <rect x="252.24" y="32.16" width="197.76" height="116.85"/>
  </clipPath>
  <clipPath id="p0e72bb1066">
   <rect x="43.68" y="187.17" width="197.76" height="116.85"/>
  </clipPath>
  <clipPath id="pca9cfde07b">
   <rect x="252.24" y="187.17" width="197.76" height="116.85"/>
  </clipPath>
 </defs>
</svg>
